<?xml version="1.0" standalone="no"?>
<!DOCTYPE svg PUBLIC "-//W3C//DTD SVG 20010904//EN"
 "http://www.w3.org/TR/2001/REC-SVG-20010904/DTD/svg10.dtd">
<svg version="1.0" xmlns="http://www.w3.org/2000/svg"
 width="512.000000pt" height="512.000000pt" viewBox="0 0 512.000000 512.000000"
 preserveAspectRatio="xMidYMid meet">
<metadata>
Created by potrace 1.14, written by Peter Selinger 2001-2017
</metadata>
<g transform="translate(0.000000,512.000000) scale(0.100000,-0.100000)"
fill="#000000" stroke="none">
<path d="M850 5105 c-164 -45 -293 -177 -330 -338 -6 -26 -9 -848 -10 -2207 0
-2332 -3 -2206 51 -2317 27 -58 128 -159 189 -191 63 -33 151 -51 233 -48 184
8 336 122 403 301 18 48 19 115 24 1510 l5 1460 151 -210 c253 -351 542 -749
551 -760 5 -5 29 -39 55 -75 25 -36 61 -79 80 -96 167 -157 432 -163 601 -13
26 22 110 129 188 237 79 108 166 229 194 267 29 39 125 171 214 295 89 124
167 232 174 240 7 9 28 38 47 65 l35 50 5 -1460 c4 -1184 8 -1467 18 -1495 61
-159 165 -259 319 -305 62 -19 197 -12 265 12 141 52 254 179 287 324 7 29 11
785 11 2204 0 2342 3 2214 -52 2323 -114 225 -411 308 -629 176 -74 -44 -110
-85 -259 -293 -69 -95 -163 -226 -210 -291 -47 -65 -267 -370 -490 -678 -223
-309 -407 -561 -410 -561 -4 0 -355 481 -410 562 -8 12 -41 58 -73 102 -32 44
-65 89 -73 100 -8 11 -114 157 -235 325 -121 168 -257 356 -302 418 -202 280
-242 318 -382 364 -47 15 -185 17 -235 3z"/>
</g>
</svg>
